<svg width="36" height="36" viewBox="0 0 36 36" fill="none" xmlns="http://www.w3.org/2000/svg">
<path d="M18 36C15.5227 36 13.1893 35.5267 11 34.58C8.81068 33.632 6.90401 32.3453 5.28001 30.72C3.65601 29.0947 2.36934 27.188 1.42001 25C0.470678 22.812 -0.00265546 20.4787 1.12045e-05 18C1.12045e-05 15.5147 0.473345 13.1793 1.42001 10.994C2.36801 8.80733 3.65468 6.90267 5.28001 5.28C6.90534 3.65733 8.81201 2.37067 11 1.42C13.1893 0.473333 15.5227 0 18 0C20.4853 0 22.8207 0.473333 25.006 1.42C27.1927 2.368 29.098 3.65467 30.722 5.28C32.346 6.90533 33.632 8.81 34.58 10.994C35.5267 13.1807 36 15.516 36 18C36 20.4773 35.5267 22.8107 34.58 25C33.632 27.1893 32.3453 29.096 30.72 30.72C29.0947 32.344 27.19 33.6307 25.006 34.58C22.822 35.5293 20.4867 36.0027 18 36ZM18 34.016C19.1733 32.508 20.1413 31.0273 20.904 29.574C21.6653 28.1207 22.2847 26.494 22.762 24.694H13.238C13.7673 26.5953 14.3993 28.2727 15.134 29.726C15.87 31.1793 16.8253 32.6093 18 34.016ZM15.454 33.716C14.5207 32.616 13.6687 31.256 12.898 29.636C12.1273 28.0173 11.554 26.3693 11.178 24.692H3.50801C4.65468 27.1787 6.27934 29.2187 8.38201 30.812C10.486 32.404 12.8433 33.372 15.454 33.716ZM20.546 33.716C23.1567 33.372 25.514 32.404 27.618 30.812C29.7207 29.2187 31.3453 27.1787 32.492 24.692H24.824C24.3173 26.3947 23.6793 28.0553 22.91 29.674C22.1393 31.294 21.3513 32.6427 20.546 33.716ZM2.69201 22.694H10.762C10.61 21.8727 10.5033 21.0727 10.442 20.294C10.378 19.5167 10.346 18.752 10.346 18C10.346 17.248 10.3773 16.4833 10.44 15.706C10.5027 14.9287 10.6093 14.1287 10.76 13.306H2.69401C2.47668 13.9993 2.30668 14.7547 2.18401 15.572C2.06134 16.388 2.00001 17.1973 2.00001 18C2.00001 18.8027 2.06068 19.6127 2.18201 20.43C2.30334 21.2473 2.47334 22.0013 2.69201 22.692M12.762 22.692H23.238C23.39 21.872 23.4967 21.0853 23.558 20.332C23.622 19.58 23.654 18.8027 23.654 18C23.654 17.1973 23.6227 16.42 23.56 15.668C23.4973 14.916 23.3907 14.1293 23.24 13.308H12.76C12.6093 14.128 12.5027 14.9147 12.44 15.668C12.3773 16.42 12.346 17.1973 12.346 18C12.346 18.8027 12.3773 19.58 12.44 20.332C12.5027 21.084 12.6113 21.8707 12.762 22.692ZM25.24 22.692H33.308C33.5253 22 33.6953 21.246 33.818 20.43C33.9393 19.6127 34 18.8027 34 18C34 17.1973 33.9393 16.3873 33.818 15.57C33.6967 14.7527 33.5267 13.9987 33.308 13.308H25.238C25.39 14.128 25.4967 14.9273 25.558 15.706C25.622 16.4847 25.654 17.2493 25.654 18C25.654 18.7507 25.6227 19.5153 25.56 20.294C25.4973 21.0727 25.3907 21.8727 25.24 22.694M24.824 11.308H32.492C31.32 8.76933 29.7147 6.72933 27.676 5.188C25.6373 3.64667 23.2607 2.666 20.546 2.246C21.4793 3.474 22.3187 4.87867 23.064 6.46C23.8093 8.04 24.396 9.656 24.824 11.308ZM13.238 11.308H22.762C22.234 9.43067 21.5827 7.73333 20.808 6.216C20.0333 4.69867 19.0973 3.288 18 1.984C16.9027 3.28667 15.9667 4.69733 15.192 6.216C14.4173 7.73467 13.7647 9.432 13.238 11.308ZM3.51001 11.308H11.178C11.606 9.65733 12.1927 8.04133 12.938 6.46C13.6833 4.87867 14.5227 3.474 15.456 2.246C12.7173 2.66733 10.3347 3.654 8.30801 5.206C6.28134 6.76067 4.68134 8.794 3.50801 11.306" fill="#2E5A7A"/>
</svg>
