<svg width="36" height="36" viewBox="0 0 36 36" fill="none" xmlns="http://www.w3.org/2000/svg">
<path d="M18 2.25C20.0683 2.25 22.1164 2.65739 24.0273 3.4489C25.9381 4.24041 27.6744 5.40055 29.1369 6.86307C30.5995 8.32559 31.7596 10.0619 32.5511 11.9727C33.3426 13.8836 33.75 15.9317 33.75 18C33.75 20.0683 33.3426 22.1164 32.5511 24.0273C31.7596 25.9381 30.5995 27.6744 29.1369 29.1369C27.6744 30.5995 25.9381 31.7596 24.0273 32.5511C22.1164 33.3426 20.0683 33.75 18 33.75V2.25ZM18 0C13.2261 0 8.64773 1.89642 5.27208 5.27208C1.89642 8.64773 0 13.2261 0 18C0 22.7739 1.89642 27.3523 5.27208 30.7279C8.64773 34.1036 13.2261 36 18 36C22.7739 36 27.3523 34.1036 30.7279 30.7279C34.1036 27.3523 36 22.7739 36 18C36 13.2261 34.1036 8.64773 30.7279 5.27208C27.3523 1.89642 22.7739 0 18 0Z" fill="#2E5A7A"/>
</svg>
