<svg id="Layer_1" data-name="Layer 1" xmlns="http://www.w3.org/2000/svg" xmlns:xlink="http://www.w3.org/1999/xlink" viewBox="0 0 1500 1000"><defs><style>.cls-1{fill:none;}.cls-2{clip-path:url(#clip-path);}.cls-3{fill:#cd0f1d;}.cls-4{fill:#fff;}.cls-5{fill:#005b2b;}</style><clipPath id="clip-path"><rect class="cls-1" x="-1.26" y="-1.34" width="1500" height="1000"/></clipPath></defs><title>Flag-of-iraq</title><g class="cls-2"><rect class="cls-3" x="-1.26" y="-1.34" width="1500" height="333.34"/><rect class="cls-4" x="-1.26" y="332" width="1500" height="333.33"/><rect x="-1.26" y="665.33" width="1500" height="333.33"/><path class="cls-5" d="M475.51,627l-8.87-9.93,9-9.83,8.95-9.85,8.88,9.93,8.87,9.93-8.95,9.83-9,9.84-8.87-10Zm-60.91-5c-3.2-1.29-8.38-5.54-11.77-9.66-6.4-7.76-7.85-11.38-3.56-8.84,6.41,3.8,19.11,6.28,23.63,4.61,16.66-6.17,20.45-30.83,7.14-46.47-2.61-3.07-4.75-6.63-4.75-7.93s2.77-3.71,6.17-5.38c4.75-2.33,7.07-4.86,10.11-11s4.34-7.66,5.83-6.3c2.12,1.95,9.27,20.87,9.27,24.52,0,1.93,2.58,2.35,14.27,2.35h14.29L483,552a76.92,76.92,0,0,0-4.49-9.76c-2-3.4-2-4-.09-5.52,1.18-1,5.14-4,8.79-6.86s7-6.38,7.56-7.9c1.26-3.77,9.16-14.63,10.62-14.63.65,0,1.2,11.39,1.2,25.3v25.29H684.84V485.43l-5-3.41-5-3.39-5,4.24-5,4.24v51.8H590c-41.18,0-74.87-.29-74.87-.63,0-.56,37.26-56.33,41.82-62.61.94-1.3,3.28-4.86,5.2-7.9a64.58,64.58,0,0,1,4.31-6.32,64.72,64.72,0,0,0,4.31-6.33c1.9-3,4.11-6.37,4.92-7.38s14.31-21.07,30-44.56,29-42.77,29.56-42.82,1.39,1.87,1.82,4.25c2.36,13.24,4.16,20.65,6,24.72,2.39,5.21,1,7.16-5.31,7.37-3,.1-9.85,9.45-42.07,57.26-21.18,31.43-38.72,57.71-39,58.4s18.87,1.3,42.46,1.3h42.9v-17c0-9.34.5-17.73,1.08-18.63,2.69-4.21,31-26.18,33-25.59,1.23.36,8.81,6.21,16.86,13l14.62,12.33V583.18H460l-2.5,10.21c-3,12.21-7.86,21-14.43,26-6.23,4.64-20.25,6-28.47,2.61Zm308.73-121c0-57.4.47-82.47,1.55-83.22.85-.59,4.54,2.42,8.2,6.68s10.18,11.08,14.5,15.17c6.81,6.47,7.52,7.65,5.42,9.07-7,4.73-6.85,3.24-6.85,57.8v51.27H759.8c12.12,0,14.36-.46,20-4.1,7-4.52,7.41-3.93,4,5.1a70.13,70.13,0,0,0-3.27,14.81l-.87,8.7-28.16.42-28.17.43Z"/><path class="cls-5" d="M870.8,561.89c.75-23.13,2.9-31,10.55-38.41,5.88-5.73,14.32-8.45,24.06-7.75l7.3.53.44-9.46c.56-12-.43-16.26-4-17.53-4.32-1.51-3.43-6.48,1.8-10.1,2.55-1.77,8.82-7.9,13.91-13.62s9.76-10.41,10.39-10.41,1.11,22.86,1.11,50.79v50.78h20V504.46c0-45.39-.29-52.59-2.25-54.76-1.23-1.37-2.84-2.49-3.57-2.49-3.22,0-.95-6.36,3.31-9.31,2.57-1.76,8.8-7.86,13.86-13.54s9.72-10,10.38-9.52,1.18,32.55,1.18,71.34v70.53h20V412.28l-3.53-3.46c-2-1.88-3.59-4.3-3.59-5.36s4.45-5.9,9.9-10.77,11.28-11,13-13.67c7.3-11.39,7.18-13.08,7.18,99.14V582.1H870.14l.91-20.24Zm42.6-15.5V536.08h-5.66c-7.53,0-14.42,7.25-14.42,15.2v5.43h20V546.4ZM1038,499.71c0-57.62.46-82.8,1.54-83.54.86-.58,4.56,2.43,8.24,6.7S1058,434,1062.31,438.1c6.84,6.49,7.55,7.69,5.44,9.12-7,4.75-6.86,3.26-6.86,58v51.46h14c12.68,0,14.48-.38,19.43-4.11,3-2.26,5.8-3.71,6.24-3.23s-.34,3.92-1.73,7.68a77.61,77.61,0,0,0-3.39,15.52l-.9,8.74-28.28.42-28.26.44V499.71ZM925.27,413.35a20.67,20.67,0,0,1-6.44-4c-1.56-1.83-.79-2,4.87-1.1,10.18,1.6,16.42-.31,22.1-6.8l5-5.69,6.94,2.7c3.82,1.5,7.8,2.35,8.86,1.9,2.75-1.17,7.75-9.93,7.24-12.72-.6-3.39,2.2-2.88,4,.72,3.41,7.08.56,16.05-6,18.79-3.19,1.33-6.28,1.37-11.46.15-6.36-1.51-7.4-1.36-10.19,1.54-6.23,6.49-15.74,8.22-24.87,4.53Zm17.35-26.2c-3.45-2.62-10.72-16-11-20.24-.24-3.64.35-4.76,2.69-5.13,4.09-.65,6,2.37,9.12,14.59,2.59,10,2.32,13.16-.8,10.78Z"/></g></svg>